<mxfile host="app.diagrams.net" modified="2024-04-25T11:04:18.418Z" agent="Mozilla/5.0 (Macintosh; Intel Mac OS X 10_15_7) AppleWebKit/537.36 (KHTML, like Gecko) Chrome/124.0.0.0 Safari/537.36" etag="ZKj-Vo_rgfpkGyVy_-Km" version="24.3.0" type="device">
  <diagram name="Page-1" id="PkZ-qoesTVHMzRAgJCa9">
    <mxGraphModel dx="1414" dy="862" grid="1" gridSize="10" guides="1" tooltips="1" connect="1" arrows="1" fold="1" page="1" pageScale="1" pageWidth="850" pageHeight="1100" math="0" shadow="0">
      <root>
        <mxCell id="0" />
        <mxCell id="1" parent="0" />
        <mxCell id="k2wzVRSAGESj_FHCa7zf-19" value="" style="html=1;verticalLabelPosition=bottom;align=center;labelBackgroundColor=#ffffff;verticalAlign=top;strokeWidth=2;strokeColor=#0080F0;shadow=0;dashed=0;shape=mxgraph.ios7.icons.documents;" vertex="1" parent="1">
          <mxGeometry x="500" y="340" width="30" height="30" as="geometry" />
        </mxCell>
        <mxCell id="k2wzVRSAGESj_FHCa7zf-13" value="" style="html=1;verticalLabelPosition=bottom;align=center;labelBackgroundColor=#ffffff;verticalAlign=top;strokeWidth=2;strokeColor=#0080F0;shadow=0;dashed=0;shape=mxgraph.ios7.icons.documents;" vertex="1" parent="1">
          <mxGeometry x="1130" y="420" width="52.5" height="70" as="geometry" />
        </mxCell>
        <mxCell id="k2wzVRSAGESj_FHCa7zf-2" value="" style="html=1;verticalLabelPosition=bottom;align=center;labelBackgroundColor=#ffffff;verticalAlign=top;strokeWidth=2;strokeColor=#0080F0;shadow=0;dashed=0;shape=mxgraph.ios7.icons.user;" vertex="1" parent="1">
          <mxGeometry x="20" y="190" width="100" height="100" as="geometry" />
        </mxCell>
        <mxCell id="k2wzVRSAGESj_FHCa7zf-3" value="" style="html=1;verticalLabelPosition=bottom;align=center;labelBackgroundColor=#ffffff;verticalAlign=top;strokeWidth=2;strokeColor=#0080F0;shadow=0;dashed=0;shape=mxgraph.ios7.icons.settings;fontStyle=1" vertex="1" parent="1">
          <mxGeometry x="360" y="190" width="100" height="100" as="geometry" />
        </mxCell>
        <mxCell id="k2wzVRSAGESj_FHCa7zf-4" value="" style="endArrow=classic;html=1;rounded=0;" edge="1" parent="1">
          <mxGeometry width="50" height="50" relative="1" as="geometry">
            <mxPoint x="120" y="220" as="sourcePoint" />
            <mxPoint x="350" y="220" as="targetPoint" />
          </mxGeometry>
        </mxCell>
        <mxCell id="k2wzVRSAGESj_FHCa7zf-5" value="" style="endArrow=classic;html=1;rounded=0;" edge="1" parent="1">
          <mxGeometry width="50" height="50" relative="1" as="geometry">
            <mxPoint x="350" y="250" as="sourcePoint" />
            <mxPoint x="120" y="250" as="targetPoint" />
          </mxGeometry>
        </mxCell>
        <mxCell id="k2wzVRSAGESj_FHCa7zf-6" value="" style="shape=image;verticalLabelPosition=bottom;labelBackgroundColor=default;verticalAlign=top;aspect=fixed;imageAspect=0;image=https://seeklogo.com/images/P/pinecone-icon-logo-AF8B5B7F96-seeklogo.com.png;" vertex="1" parent="1">
          <mxGeometry x="702.5" y="190" width="89" height="100" as="geometry" />
        </mxCell>
        <mxCell id="k2wzVRSAGESj_FHCa7zf-10" value="" style="html=1;verticalLabelPosition=bottom;align=center;labelBackgroundColor=#ffffff;verticalAlign=top;strokeWidth=2;strokeColor=#0080F0;shadow=0;dashed=0;shape=mxgraph.ios7.icons.documents;" vertex="1" parent="1">
          <mxGeometry x="695" y="390" width="52.5" height="70" as="geometry" />
        </mxCell>
        <mxCell id="k2wzVRSAGESj_FHCa7zf-9" value="" style="html=1;verticalLabelPosition=bottom;align=center;labelBackgroundColor=#ffffff;verticalAlign=top;strokeWidth=2;strokeColor=#0080F0;shadow=0;dashed=0;shape=mxgraph.ios7.icons.documents;" vertex="1" parent="1">
          <mxGeometry x="672.5" y="410" width="52.5" height="70" as="geometry" />
        </mxCell>
        <mxCell id="k2wzVRSAGESj_FHCa7zf-8" value="" style="html=1;verticalLabelPosition=bottom;align=center;labelBackgroundColor=#ffffff;verticalAlign=top;strokeWidth=2;strokeColor=#0080F0;shadow=0;dashed=0;shape=mxgraph.ios7.icons.documents;" vertex="1" parent="1">
          <mxGeometry x="642.5" y="430" width="52.5" height="70" as="geometry" />
        </mxCell>
        <mxCell id="k2wzVRSAGESj_FHCa7zf-7" value="" style="html=1;verticalLabelPosition=bottom;align=center;labelBackgroundColor=#ffffff;verticalAlign=top;strokeWidth=2;strokeColor=#0080F0;shadow=0;dashed=0;shape=mxgraph.ios7.icons.documents;" vertex="1" parent="1">
          <mxGeometry x="620" y="450" width="52.5" height="70" as="geometry" />
        </mxCell>
        <mxCell id="k2wzVRSAGESj_FHCa7zf-11" value="" style="html=1;verticalLabelPosition=bottom;align=center;labelBackgroundColor=#ffffff;verticalAlign=top;strokeWidth=2;strokeColor=#0080F0;shadow=0;dashed=0;shape=mxgraph.ios7.icons.settings;" vertex="1" parent="1">
          <mxGeometry x="890" y="330" width="100" height="100" as="geometry" />
        </mxCell>
        <mxCell id="k2wzVRSAGESj_FHCa7zf-12" value="" style="html=1;verticalLabelPosition=bottom;align=center;labelBackgroundColor=#ffffff;verticalAlign=top;strokeWidth=2;strokeColor=#0080F0;shadow=0;dashed=0;shape=mxgraph.ios7.icons.documents;" vertex="1" parent="1">
          <mxGeometry x="1100" y="440" width="52.5" height="70" as="geometry" />
        </mxCell>
        <mxCell id="k2wzVRSAGESj_FHCa7zf-14" value="" style="shape=image;verticalLabelPosition=bottom;labelBackgroundColor=default;verticalAlign=top;aspect=fixed;imageAspect=0;image=https://seeklogo.com/images/M/mistral-ai-icon-logo-B3319DCA6B-seeklogo.com.png;" vertex="1" parent="1">
          <mxGeometry x="368.78999999999996" y="443.5" width="91.21" height="83" as="geometry" />
        </mxCell>
        <mxCell id="k2wzVRSAGESj_FHCa7zf-15" value="" style="endArrow=classic;html=1;rounded=0;" edge="1" parent="1">
          <mxGeometry width="50" height="50" relative="1" as="geometry">
            <mxPoint x="430" y="310" as="sourcePoint" />
            <mxPoint x="430" y="430" as="targetPoint" />
          </mxGeometry>
        </mxCell>
        <mxCell id="k2wzVRSAGESj_FHCa7zf-16" value="query +" style="text;html=1;align=center;verticalAlign=middle;whiteSpace=wrap;rounded=0;" vertex="1" parent="1">
          <mxGeometry x="430" y="350" width="60" height="30" as="geometry" />
        </mxCell>
        <mxCell id="k2wzVRSAGESj_FHCa7zf-17" value="" style="html=1;verticalLabelPosition=bottom;align=center;labelBackgroundColor=#ffffff;verticalAlign=top;strokeWidth=2;strokeColor=#0080F0;shadow=0;dashed=0;shape=mxgraph.ios7.icons.documents;" vertex="1" parent="1">
          <mxGeometry x="490" y="350" width="30" height="30" as="geometry" />
        </mxCell>
        <mxCell id="k2wzVRSAGESj_FHCa7zf-20" value="query" style="text;html=1;align=center;verticalAlign=middle;whiteSpace=wrap;rounded=0;" vertex="1" parent="1">
          <mxGeometry x="210" y="190" width="60" height="30" as="geometry" />
        </mxCell>
        <mxCell id="k2wzVRSAGESj_FHCa7zf-21" value="answer" style="text;html=1;align=center;verticalAlign=middle;whiteSpace=wrap;rounded=0;" vertex="1" parent="1">
          <mxGeometry x="210" y="260" width="60" height="30" as="geometry" />
        </mxCell>
        <mxCell id="k2wzVRSAGESj_FHCa7zf-22" value="" style="endArrow=classic;html=1;rounded=0;" edge="1" parent="1">
          <mxGeometry width="50" height="50" relative="1" as="geometry">
            <mxPoint x="465" y="220" as="sourcePoint" />
            <mxPoint x="695" y="220" as="targetPoint" />
          </mxGeometry>
        </mxCell>
        <mxCell id="k2wzVRSAGESj_FHCa7zf-23" value="query" style="text;html=1;align=center;verticalAlign=middle;whiteSpace=wrap;rounded=0;" vertex="1" parent="1">
          <mxGeometry x="550" y="190" width="60" height="30" as="geometry" />
        </mxCell>
        <mxCell id="k2wzVRSAGESj_FHCa7zf-24" value="" style="endArrow=classic;html=1;rounded=0;" edge="1" parent="1">
          <mxGeometry width="50" height="50" relative="1" as="geometry">
            <mxPoint x="730" y="300" as="sourcePoint" />
            <mxPoint x="710" y="370" as="targetPoint" />
          </mxGeometry>
        </mxCell>
        <mxCell id="k2wzVRSAGESj_FHCa7zf-25" value="Relevant docs" style="text;html=1;align=center;verticalAlign=middle;whiteSpace=wrap;rounded=0;" vertex="1" parent="1">
          <mxGeometry x="627.5" y="310" width="82.5" height="30" as="geometry" />
        </mxCell>
        <mxCell id="k2wzVRSAGESj_FHCa7zf-26" value="" style="endArrow=classic;html=1;rounded=0;" edge="1" parent="1">
          <mxGeometry width="50" height="50" relative="1" as="geometry">
            <mxPoint x="760" y="410" as="sourcePoint" />
            <mxPoint x="860" y="380" as="targetPoint" />
          </mxGeometry>
        </mxCell>
        <mxCell id="k2wzVRSAGESj_FHCa7zf-27" value="Reranked docs" style="text;html=1;align=center;verticalAlign=middle;whiteSpace=wrap;rounded=0;" vertex="1" parent="1">
          <mxGeometry x="770" y="360" width="60" height="30" as="geometry" />
        </mxCell>
        <mxCell id="k2wzVRSAGESj_FHCa7zf-28" value="" style="endArrow=classic;html=1;rounded=0;" edge="1" parent="1">
          <mxGeometry width="50" height="50" relative="1" as="geometry">
            <mxPoint x="1010" y="390" as="sourcePoint" />
            <mxPoint x="1087.5" y="420" as="targetPoint" />
          </mxGeometry>
        </mxCell>
        <mxCell id="k2wzVRSAGESj_FHCa7zf-29" value="Most relevant docs" style="text;html=1;align=center;verticalAlign=middle;whiteSpace=wrap;rounded=0;" vertex="1" parent="1">
          <mxGeometry x="1030" y="360" width="60" height="30" as="geometry" />
        </mxCell>
        <mxCell id="k2wzVRSAGESj_FHCa7zf-30" value="" style="endArrow=classic;html=1;rounded=0;" edge="1" parent="1">
          <mxGeometry width="50" height="50" relative="1" as="geometry">
            <mxPoint x="1120" y="520" as="sourcePoint" />
            <mxPoint x="470" y="250" as="targetPoint" />
            <Array as="points">
              <mxPoint x="1120" y="590" />
              <mxPoint x="570" y="590" />
              <mxPoint x="570" y="250" />
            </Array>
          </mxGeometry>
        </mxCell>
        <mxCell id="k2wzVRSAGESj_FHCa7zf-31" value="Most relevant docs" style="text;html=1;align=center;verticalAlign=middle;whiteSpace=wrap;rounded=0;" vertex="1" parent="1">
          <mxGeometry x="780" y="610" width="148.5" height="30" as="geometry" />
        </mxCell>
        <mxCell id="k2wzVRSAGESj_FHCa7zf-33" value="" style="endArrow=classic;html=1;rounded=0;" edge="1" parent="1">
          <mxGeometry width="50" height="50" relative="1" as="geometry">
            <mxPoint x="400" y="430" as="sourcePoint" />
            <mxPoint x="400" y="310" as="targetPoint" />
          </mxGeometry>
        </mxCell>
        <mxCell id="k2wzVRSAGESj_FHCa7zf-34" value="answer" style="text;html=1;align=center;verticalAlign=middle;whiteSpace=wrap;rounded=0;" vertex="1" parent="1">
          <mxGeometry x="320" y="360" width="60" height="30" as="geometry" />
        </mxCell>
        <mxCell id="k2wzVRSAGESj_FHCa7zf-35" value="LLM" style="text;html=1;align=center;verticalAlign=middle;whiteSpace=wrap;rounded=0;fontStyle=1" vertex="1" parent="1">
          <mxGeometry x="390" y="560" width="60" height="30" as="geometry" />
        </mxCell>
        <mxCell id="k2wzVRSAGESj_FHCa7zf-36" value="Backend" style="text;html=1;align=center;verticalAlign=middle;whiteSpace=wrap;rounded=0;fontStyle=1" vertex="1" parent="1">
          <mxGeometry x="380" y="140" width="60" height="30" as="geometry" />
        </mxCell>
        <mxCell id="k2wzVRSAGESj_FHCa7zf-37" value="User" style="text;html=1;align=center;verticalAlign=middle;whiteSpace=wrap;rounded=0;fontStyle=1" vertex="1" parent="1">
          <mxGeometry x="40" y="140" width="60" height="30" as="geometry" />
        </mxCell>
        <mxCell id="k2wzVRSAGESj_FHCa7zf-41" value="Database" style="text;html=1;align=center;verticalAlign=middle;whiteSpace=wrap;rounded=0;fontStyle=1" vertex="1" parent="1">
          <mxGeometry x="725" y="140" width="60" height="30" as="geometry" />
        </mxCell>
        <mxCell id="k2wzVRSAGESj_FHCa7zf-42" value="Reranker" style="text;html=1;align=center;verticalAlign=middle;whiteSpace=wrap;rounded=0;fontStyle=1" vertex="1" parent="1">
          <mxGeometry x="910" y="290" width="60" height="30" as="geometry" />
        </mxCell>
      </root>
    </mxGraphModel>
  </diagram>
</mxfile>
